<?xml version="1.0" encoding="UTF-8" standalone="no"?>
<svg
   xmlns:dc="http://purl.org/dc/elements/1.1/"
   xmlns:cc="http://creativecommons.org/ns#"
   xmlns:rdf="http://www.w3.org/1999/02/22-rdf-syntax-ns#"
   xmlns:svg="http://www.w3.org/2000/svg"
   xmlns="http://www.w3.org/2000/svg"
   xmlns:xlink="http://www.w3.org/1999/xlink"
   xmlns:sodipodi="http://sodipodi.sourceforge.net/DTD/sodipodi-0.dtd"
   xmlns:inkscape="http://www.inkscape.org/namespaces/inkscape"
   width="128"
   height="128"
   viewBox="0 0 33.866666 33.866668"
   version="1.1"
   id="svg8"
   inkscape:version="1.0.2 (e86c870879, 2021-01-15, custom)"
   sodipodi:docname="icon.svg">
  <defs
     id="defs2" />
  <sodipodi:namedview
     id="base"
     pagecolor="#ffffff"
     bordercolor="#666666"
     borderopacity="1.0"
     inkscape:pageopacity="0.0"
     inkscape:pageshadow="2"
     inkscape:zoom="4"
     inkscape:cx="55.713816"
     inkscape:cy="46.495472"
     inkscape:document-units="px"
     inkscape:current-layer="layer2"
     inkscape:document-rotation="0"
     showgrid="false"
     units="px"
     inkscape:window-width="1920"
     inkscape:window-height="1001"
     inkscape:window-x="-9"
     inkscape:window-y="-9"
     inkscape:window-maximized="1" />
  <metadata
     id="metadata5">
    <rdf:RDF>
      <cc:Work
         rdf:about="">
        <dc:format>image/svg+xml</dc:format>
        <dc:type
           rdf:resource="http://purl.org/dc/dcmitype/StillImage" />
        <dc:title></dc:title>
      </cc:Work>
    </rdf:RDF>
  </metadata>
  <g
     inkscape:label="Capa 1"
     inkscape:groupmode="layer"
     id="layer1"
     style="display:none"
     sodipodi:insensitive="true">
    <path
       style="fill:none;stroke:#000000;stroke-width:0.264583px;stroke-linecap:butt;stroke-linejoin:miter;stroke-opacity:1"
       d="m 4.6302085,4.4979168 h 7.4744795 c -0.990848,-6.4928937 12.960974,-4.76959624 11.178646,0 h 9.06198 v 7.9375002 c -5.793362,0.04917 -7.819072,7.914412 0,8.665104 v 7.9375 h -9.06198 c 2.194165,5.684863 -13.331248,6.303743 -11.178646,0 H 4.6302085 v -7.9375 c -5.6404348,0.09246 -5.7551592,-9.117423 0,-8.665104 z"
       id="path833"
       sodipodi:nodetypes="ccccccccccccc" />
    <g
       id="g843">
      <path
         style="fill:none;stroke:#000000;stroke-width:0.264583px;stroke-linecap:butt;stroke-linejoin:miter;stroke-opacity:1"
         d="m 8.6651043,7.9375002 7.1437507,4.4979168 v 4.365625"
         id="path837"
         sodipodi:nodetypes="ccc" />
      <path
         style="fill:none;stroke:#000000;stroke-width:0.264583px;stroke-linecap:butt;stroke-linejoin:miter;stroke-opacity:1"
         d="m 6.2838543,5.8869793 v 2.2489582 l 6.8791677,4.2994795 v 4.365625"
         id="path839"
         sodipodi:nodetypes="cccc" />
    </g>
    <use
       x="0"
       y="0"
       xlink:href="#g843"
       id="use845"
       transform="matrix(1,0,0,-1,0,33.602084)"
       width="100%"
       height="100%" />
    <use
       x="0"
       y="0"
       xlink:href="#g843"
       id="use847"
       transform="matrix(-1,0,0,1,36.247917,0)"
       width="100%"
       height="100%" />
    <use
       x="0"
       y="0"
       xlink:href="#g843"
       id="use849"
       transform="rotate(180,18.123959,16.801042)"
       width="100%"
       height="100%" />
  </g>
  <g
     inkscape:groupmode="layer"
     id="layer2"
     inkscape:label="Capa 2">
    <path
       style="fill:#00a8c0;stroke:#000000;stroke-width:0.264583px;stroke-linecap:butt;stroke-linejoin:miter;stroke-opacity:1;fill-opacity:1"
       d="m 4.6302085,4.4979168 h 7.4744795 c -0.990848,-6.4928937 12.960974,-4.76959624 11.178646,0 h 9.06198 v 7.9375002 c -5.793362,0.04917 -7.819072,7.914412 0,8.665104 v 7.9375 h -9.06198 c 2.194165,5.684863 -13.331248,6.303743 -11.178646,0 H 4.6302085 v -7.9375 c -5.6404348,0.09246 -5.7551592,-9.117423 0,-8.665104 z"
       id="path864"
       sodipodi:nodetypes="ccccccccccccc" />
    <path
       style="display:inline;fill:#ffffff;stroke:#000000;stroke-width:0.264583px;stroke-linecap:butt;stroke-linejoin:miter;stroke-opacity:1;fill-opacity:1"
       d="M 6.2838543,5.8869793 H 29.964063 v 2.2489584 l -6.879168,4.2994793 1e-6,8.73125 6.879167,4.29948 v 2.248958 H 6.2838543 v -2.248958 l 6.8791677,-4.29948 v -8.73125 L 6.2838543,8.1359377 Z"
       id="path859" />
    <path
       style="fill:#006877;stroke:#000000;stroke-width:0.264583px;stroke-linecap:butt;stroke-linejoin:miter;stroke-opacity:1;fill-opacity:1"
       d="M 27.582813,7.9375002 H 8.6651044 l 7.1437506,4.4979168 v 4.365625 h 4.630208 l -1e-6,-4.365625 z"
       id="path853" />
    <path
       style="fill:#a0b107;stroke:#000000;stroke-width:0.264583px;stroke-linecap:butt;stroke-linejoin:miter;stroke-opacity:1;fill-opacity:1"
       d="m 15.941146,19.248438 h 4.497917 v 1.918233 h -4.630208 z"
       id="path857"
       sodipodi:nodetypes="ccccc" />
    <path
       style="fill:#a0b107;stroke:#000000;stroke-width:0.264583px;stroke-linecap:butt;stroke-linejoin:miter;stroke-opacity:1;fill-opacity:1"
       d="M 8.6651044,25.664584 H 27.582813 L 23.680209,23.217188 H 12.633854 Z"
       id="path855"
       sodipodi:nodetypes="ccccc" />
  </g>
</svg>
